<?xml version="1.0" standalone="no"?>
<!DOCTYPE svg PUBLIC "-//W3C//DTD SVG 20010904//EN"
 "http://www.w3.org/TR/2001/REC-SVG-20010904/DTD/svg10.dtd">
<svg version="1.0" xmlns="http://www.w3.org/2000/svg"
 width="64.000000pt" height="64.000000pt" viewBox="0 0 64.000000 64.000000"
 preserveAspectRatio="xMidYMid meet">

<g transform="translate(0.000000,64.000000) scale(0.100000,-0.100000)"
fill="#ffffff" stroke="none">
<path d="M105 560 c-10 -16 4 -30 30 -30 26 0 23 8 64 -157 26 -101 26 -107
-1 -143 -18 -25 -20 -33 -10 -55 7 -14 23 -30 37 -37 14 -6 25 -17 25 -23 0
-7 9 -20 20 -30 25 -23 67 -13 82 20 10 22 18 25 60 25 33 0 48 -4 48 -13 0
-19 33 -47 53 -47 23 0 57 36 57 59 0 42 -19 47 -184 45 -127 -1 -159 1 -163
12 -3 8 0 21 7 29 10 12 42 15 165 15 132 0 154 2 167 18 14 15 68 175 68 201
0 8 -63 11 -209 11 l-209 0 -7 40 c-4 22 -13 47 -22 55 -16 17 -69 20 -78 5z
m213 -157 c3 -21 -1 -23 -42 -23 -25 0 -46 4 -46 9 0 5 -3 17 -6 26 -6 14 0
16 42 13 42 -3 49 -6 52 -25z m80 0 c3 -20 -1 -23 -32 -23 -28 0 -36 4 -36 18
0 26 10 33 40 30 17 -2 26 -10 28 -25z m80 0 c3 -20 -1 -23 -32 -23 -28 0 -36
4 -36 18 0 26 10 33 40 30 17 -2 26 -10 28 -25z m108 11 c-3 -9 -6 -20 -6 -25
0 -5 -20 -9 -45 -9 -41 0 -45 2 -45 25 0 23 3 25 51 25 43 0 50 -3 45 -16z
m-268 -71 c-2 -13 -13 -18 -38 -18 -25 0 -36 5 -38 18 -3 14 4 17 38 17 34 0
41 -3 38 -17z m80 0 c-5 -25 -61 -25 -66 0 -3 14 4 17 33 17 29 0 36 -3 33
-17z m80 0 c-5 -25 -61 -25 -66 0 -3 14 4 17 33 17 29 0 36 -3 33 -17z m85 -4
c-4 -16 -12 -19 -37 -17 -20 2 -32 9 -34 21 -3 14 4 17 36 17 36 0 40 -2 35
-21z m-245 -56 c3 -20 -1 -23 -27 -23 -17 0 -31 4 -31 9 0 5 -3 17 -6 26 -6
14 -1 16 27 13 26 -2 35 -8 37 -25z m80 0 c3 -20 -1 -23 -32 -23 -32 0 -36 3
-36 26 0 23 3 25 33 22 24 -2 33 -8 35 -25z m77 2 c0 -15 -8 -21 -32 -23 -30
-3 -33 -1 -33 23 0 24 3 26 33 23 24 -2 32 -8 32 -23z m75 12 c0 -19 -21 -37
-42 -37 -13 0 -18 8 -18 25 0 21 5 25 30 25 18 0 30 -5 30 -13z m-230 -167 c0
-13 -7 -20 -20 -20 -19 0 -27 20 -13 33 13 14 33 6 33 -13z m210 0 c0 -13 -7
-20 -20 -20 -19 0 -27 20 -13 33 13 14 33 6 33 -13z"/>
<path d="M60 460 c0 -5 20 -10 45 -10 25 0 45 5 45 10 0 6 -20 10 -45 10 -25
0 -45 -4 -45 -10z"/>
<path d="M10 410 c0 -5 23 -10 50 -10 28 0 50 5 50 10 0 6 -22 10 -50 10 -27
0 -50 -4 -50 -10z"/>
<path d="M55 360 c-4 -6 17 -10 55 -10 38 0 59 4 55 10 -3 6 -28 10 -55 10
-27 0 -52 -4 -55 -10z"/>
</g>
</svg>

